<svg width="137" height="28" viewBox="0 0 137 28" fill="none" xmlns="http://www.w3.org/2000/svg">
<g clip-path="url(#clip0_398_4908)">
<path d="M30.5741 19.5078C29.5189 19.5078 28.4962 19.358 27.5061 19.0583C26.529 18.7587 25.7539 18.3613 25.1807 17.8663L26.06 15.8926C26.6202 16.3355 27.3042 16.7003 28.1119 16.9869C28.9327 17.2605 29.7534 17.3973 30.5741 17.3973C31.5903 17.3973 32.3459 17.2344 32.841 16.9088C33.3491 16.5831 33.6031 16.1531 33.6031 15.619C33.6031 15.2282 33.4598 14.909 33.1732 14.6615C32.8996 14.4009 32.5479 14.199 32.1179 14.0557C31.688 13.9124 31.1018 13.7495 30.3592 13.5671C29.317 13.3196 28.4702 13.0721 27.8188 12.8246C27.1804 12.577 26.6267 12.1927 26.1577 11.6716C25.7018 11.1375 25.4738 10.4209 25.4738 9.52203C25.4738 8.76642 25.6757 8.08246 26.0796 7.47016C26.4965 6.84483 27.1153 6.34977 27.936 5.985C28.7698 5.62022 29.786 5.43783 30.9845 5.43783C31.8183 5.43783 32.639 5.54205 33.4468 5.7505C34.2545 5.95894 34.9515 6.25858 35.5377 6.64941L34.7365 8.62311C34.1372 8.27137 33.5119 8.0043 32.8605 7.82191C32.2091 7.63952 31.5773 7.54832 30.965 7.54832C29.9618 7.54832 29.2127 7.71769 28.7177 8.05641C28.2357 8.39513 27.9947 8.84459 27.9947 9.40478C27.9947 9.79561 28.1314 10.1148 28.405 10.3623C28.6916 10.6098 29.0499 10.8053 29.4798 10.9486C29.9097 11.0919 30.496 11.2547 31.2386 11.4371C32.2547 11.6716 33.0885 11.9191 33.7399 12.1797C34.3913 12.4272 34.945 12.8115 35.4009 13.3326C35.8699 13.8538 36.1044 14.5572 36.1044 15.4431C36.1044 16.1987 35.896 16.8827 35.4791 17.495C35.0752 18.1073 34.4564 18.5958 33.6226 18.9606C32.7889 19.3254 31.7727 19.5078 30.5741 19.5078Z" fill="#FBF5E2"/>
<path d="M44.3101 8.75991C45.6259 8.75991 46.6811 9.14422 47.4758 9.91286C48.2705 10.6815 48.6678 11.8214 48.6678 13.3326V19.3124H46.2251V13.6453C46.2251 12.7334 46.0102 12.0494 45.5803 11.5934C45.1504 11.1244 44.5381 10.8899 43.7434 10.8899C42.8444 10.8899 42.1344 11.1635 41.6133 11.7107C41.0922 12.2448 40.8317 13.02 40.8317 14.0361V19.3124H38.389V8.87715H40.7144V10.2255C41.1183 9.7435 41.6264 9.37872 42.2387 9.1312C42.851 8.88367 43.5414 8.75991 44.3101 8.75991Z" fill="#FBF5E2"/>
<path d="M62.0627 8.87715V19.3124H59.7373V17.964C59.3334 18.4591 58.8318 18.8303 58.2325 19.0779C57.6463 19.3254 56.9949 19.4492 56.2784 19.4492C55.2622 19.4492 54.3503 19.2277 53.5426 18.7848C52.7479 18.3418 52.1225 17.7165 51.6666 16.9088C51.2236 16.101 51.0022 15.163 51.0022 14.0948C51.0022 13.0265 51.2236 12.095 51.6666 11.3003C52.1225 10.4926 52.7479 9.86726 53.5426 9.42432C54.3503 8.98138 55.2622 8.75991 56.2784 8.75991C56.9558 8.75991 57.5746 8.87715 58.1348 9.11165C58.7081 9.34615 59.2031 9.69139 59.62 10.1474V8.87715H62.0627ZM56.552 17.3582C57.4509 17.3582 58.1935 17.0586 58.7797 16.4593C59.366 15.86 59.6591 15.0718 59.6591 14.0948C59.6591 13.1177 59.366 12.3295 58.7797 11.7302C58.1935 11.131 57.4509 10.8313 56.552 10.8313C55.6531 10.8313 54.9105 11.131 54.3242 11.7302C53.751 12.3295 53.4644 13.1177 53.4644 14.0948C53.4644 15.0718 53.751 15.86 54.3242 16.4593C54.9105 17.0586 55.6531 17.3582 56.552 17.3582Z" fill="#FBF5E2"/>
<path d="M70.0464 19.4492C68.9651 19.4492 67.9945 19.2212 67.1347 18.7652C66.2748 18.3092 65.6039 17.6774 65.1219 16.8697C64.6399 16.0489 64.3988 15.124 64.3988 14.0948C64.3988 13.0656 64.6399 12.1471 65.1219 11.3394C65.6039 10.5317 66.2683 9.89983 67.1151 9.44386C67.975 8.98789 68.952 8.75991 70.0464 8.75991C71.0756 8.75991 71.9745 8.96835 72.7431 9.38524C73.5248 9.80212 74.111 10.4014 74.5018 11.1831L72.6259 12.2774C72.3262 11.7954 71.9484 11.4371 71.4924 11.2026C71.0495 10.9551 70.561 10.8313 70.0268 10.8313C69.1149 10.8313 68.3593 11.131 67.76 11.7302C67.1607 12.3165 66.8611 13.1047 66.8611 14.0948C66.8611 15.0849 67.1542 15.8796 67.7405 16.4788C68.3397 17.0651 69.1019 17.3582 70.0268 17.3582C70.561 17.3582 71.0495 17.241 71.4924 17.0065C71.9484 16.7589 72.3262 16.3942 72.6259 15.9121L74.5018 17.0065C74.098 17.7881 73.5052 18.3939 72.7236 18.8238C71.9549 19.2407 71.0625 19.4492 70.0464 19.4492Z" fill="#FBF5E2"/>
<path d="M80.7781 14.8373L78.9607 16.557V19.3124H76.518V4.8125H78.9607V13.5671L84.022 8.87715H86.9532L82.5954 13.2545L87.3636 19.3124H84.3933L80.7781 14.8373Z" fill="#FBF5E2"/>
<path d="M89.1759 5.63325H95.1557C96.6148 5.63325 97.911 5.91986 99.0444 6.49308C100.178 7.05327 101.057 7.85448 101.683 8.8967C102.308 9.92589 102.621 11.1179 102.621 12.4728C102.621 13.8277 102.308 15.0262 101.683 16.0685C101.057 17.0977 100.178 17.8989 99.0444 18.4721C97.911 19.0323 96.6148 19.3124 95.1557 19.3124H89.1759V5.63325ZM95.0384 17.1628C96.0415 17.1628 96.9209 16.9739 97.6765 16.5961C98.4452 16.2053 99.0314 15.6581 99.4353 14.9546C99.8522 14.2381 100.061 13.4108 100.061 12.4728C100.061 11.5348 99.8522 10.7141 99.4353 10.0106C99.0314 9.29404 98.4452 8.74688 97.6765 8.36907C96.9209 7.97824 96.0415 7.78282 95.0384 7.78282H91.7163V17.1628H95.0384Z" fill="#FBF5E2"/>
<path d="M115.189 8.87715V19.3124H112.864V17.9835C112.473 18.4525 111.984 18.8173 111.398 19.0779C110.812 19.3254 110.18 19.4492 109.503 19.4492C108.109 19.4492 107.008 19.0648 106.2 18.2962C105.405 17.5145 105.008 16.3616 105.008 14.8373V8.87715H107.451V14.5051C107.451 15.4431 107.659 16.1466 108.076 16.6156C108.506 17.0716 109.112 17.2996 109.893 17.2996C110.766 17.2996 111.457 17.0325 111.965 16.4984C112.486 15.9512 112.746 15.1696 112.746 14.1534V8.87715H115.189Z" fill="#FBF5E2"/>
<path d="M124.25 18.7457C123.963 18.9802 123.612 19.156 123.195 19.2733C122.791 19.3905 122.361 19.4492 121.905 19.4492C120.758 19.4492 119.873 19.1495 119.247 18.5503C118.622 17.951 118.309 17.0781 118.309 15.9317V6.57125H120.752V8.95532H123.546V10.9095H120.752V15.8731C120.752 16.3811 120.876 16.772 121.123 17.0455C121.384 17.3061 121.742 17.4364 122.198 17.4364C122.745 17.4364 123.201 17.2931 123.566 17.0065L124.25 18.7457Z" fill="#FBF5E2"/>
<path d="M136.372 8.87715V17.7295C136.372 21.4033 134.568 23.2402 130.959 23.2402C130.008 23.2402 129.096 23.11 128.223 22.8494C127.363 22.6019 126.653 22.2371 126.093 21.7551L127.187 19.9182C127.63 20.296 128.171 20.5956 128.809 20.8171C129.448 21.0385 130.119 21.1493 130.822 21.1493C131.89 21.1493 132.672 20.8887 133.167 20.3676C133.675 19.8595 133.929 19.0714 133.929 18.0031V17.5145C133.538 17.9445 133.063 18.2767 132.503 18.5112C131.943 18.7326 131.337 18.8434 130.685 18.8434C129.291 18.8434 128.191 18.4591 127.383 17.6904C126.588 16.9218 126.191 15.7688 126.191 14.2316V8.87715H128.633V13.9189C128.633 14.8439 128.842 15.5408 129.259 16.0098C129.689 16.4658 130.295 16.6938 131.076 16.6938C131.949 16.6938 132.64 16.4267 133.148 15.8926C133.669 15.3585 133.929 14.5833 133.929 13.5671V8.87715H136.372Z" fill="#FBF5E2"/>
<path fill-rule="evenodd" clip-rule="evenodd" d="M5.83331 0.985107C4.30292 1.72485 2.95323 2.88421 1.79217 4.47337C0.590011 6.27137 4.31216e-05 8.19962 0 10.2993C0 10.2994 0 10.2996 0 10.2997C4.62966e-06 10.5251 0.00680918 10.7525 0.0203861 10.982C0.14882 13.1523 0.871332 15.0776 2.2194 16.7728C2.73627 17.4227 3.35324 17.459 3.93538 16.8778C4.56808 16.2462 5.20073 15.6145 5.83331 14.9827V0.985107Z" fill="#FF5B1A"/>
<path fill-rule="evenodd" clip-rule="evenodd" d="M11.6658 9.1547C9.72192 11.0982 7.77748 13.0411 5.83252 14.9836V0.985562C7.19644 0.326125 8.7039 8.7655e-06 10.3493 1.767e-10C10.7788 -2.2878e-06 11.2177 0.0222146 11.6658 0.0665223V9.1547Z" fill="#FF7E26"/>
<path fill-rule="evenodd" clip-rule="evenodd" d="M11.6665 9.15241V0.0666504C11.6768 0.0676736 11.6872 0.0687086 11.6975 0.0697553C13.5653 0.258756 15.2539 0.993231 16.7363 2.16849C17.4147 2.70628 17.4757 3.34153 16.8671 3.9506C15.1339 5.68494 13.4004 7.41888 11.6665 9.15241Z" fill="#FF9A2F"/>
<path fill-rule="evenodd" clip-rule="evenodd" d="M5.83299 19.562V27.8041C4.30857 27.504 2.88993 26.8594 1.56711 25.8777C0.781516 25.2946 0.732938 24.6534 1.4174 23.9698C2.88891 22.5002 4.36083 21.031 5.83299 19.562Z" fill="#FF5B1A"/>
<path fill-rule="evenodd" clip-rule="evenodd" d="M5.83203 27.804V19.5636C7.68968 17.7099 9.54769 15.8566 11.4057 14.0034L11.6653 13.7444V27.2957C10.828 27.6137 9.93786 27.827 8.9995 27.9459C7.89545 28.0507 6.84059 28.0028 5.83203 27.804Z" fill="#FF7E26"/>
<path fill-rule="evenodd" clip-rule="evenodd" d="M11.667 27.2946V13.7419L11.8363 13.573C12.6346 12.7767 13.4348 11.9823 14.2358 11.1887C14.9046 10.526 15.524 10.5477 16.0807 11.2874C17.3273 12.9438 18.0745 14.7865 18.2027 16.8771C18.4054 20.1808 17.3265 22.9813 14.9269 25.251C13.9577 26.1677 12.8666 26.8387 11.667 27.2946Z" fill="#FF9A2F"/>
</g>
<defs>
<clipPath id="clip0_398_4908">
<rect width="136.37" height="28" fill="white"/>
</clipPath>
</defs>
</svg>
